<svg width="116" height="28" viewBox="0 0 116 28" fill="none" xmlns="http://www.w3.org/2000/svg">
<path d="M26.0804 26.9809H29.3053V16.7263C29.3053 12.3806 26.5188 9.28542 21.8537 9.28542C18.8794 9.28542 16.6877 10.6298 15.2162 12.5056C13.9638 10.5672 11.7722 9.28542 8.79784 9.28542C6.19919 9.28542 4.32065 10.3484 3.25614 11.6302V9.75438H0V26.9809H3.22483V17.8518C3.22483 14.3189 5.82348 12.2868 8.51606 12.2868C11.553 12.2868 13.0246 14.1939 13.0246 16.9764V27.0121H16.2494V17.9456C16.2494 14.3189 18.8794 12.2555 21.5719 12.2555C24.6089 12.2555 26.0804 14.1626 26.0804 16.9451V26.9809ZM43.5822 24.4798C40.6078 24.4798 38.2596 22.3851 37.8839 19.5713H51.7852C51.8478 19.0711 51.8478 18.5708 51.8478 18.1331C51.8478 13.1934 48.3099 9.25416 43.363 9.25416C38.1344 9.25416 34.5026 13.1622 34.5026 18.3207C34.5026 23.6356 38.3223 27.4498 43.5509 27.4498C47.3393 27.4498 50.4076 25.4489 51.6286 22.1349H48.1533C47.2767 23.6982 45.6173 24.4798 43.5822 24.4798ZM43.3943 12.2555C46.2121 12.2555 48.0907 14.1001 48.4977 16.7575H37.9152C38.291 14.1001 40.4513 12.2555 43.3943 12.2555ZM45.1476 0.0625281L41.4845 4.97098H45.492L49.1552 0.0625281H45.1476ZM58.8297 5.03351V9.75438H55.6362V12.5994H58.8297V21.666C58.8297 25.0112 60.9274 26.9809 65.248 26.9809H67.5649V24.1358H65.2794C63.1503 24.1358 62.0545 23.1354 62.0545 21.072V12.5994H67.5649V9.75438H62.0545V5.03351H58.8297ZM73.8267 26.9809H77.0516V9.75438H73.8267V26.9809ZM73.5449 3.90801H77.302V0H73.5449V3.90801ZM91.7981 24.4798C88.8238 24.4798 86.4756 22.3851 86.0999 19.5713H100.001C100.064 19.0711 100.064 18.5708 100.064 18.1331C100.064 13.1934 96.5258 9.25416 91.5789 9.25416C86.3503 9.25416 82.7185 13.1622 82.7185 18.3207C82.7185 23.6356 86.5382 27.4498 91.7668 27.4498C95.5552 27.4498 98.6235 25.4489 99.8445 22.1349H96.3692C95.4613 23.6982 93.8019 24.4798 91.7981 24.4798ZM91.6103 12.2555C94.4281 12.2555 96.3066 14.1001 96.7136 16.7575H86.1312C86.5069 14.1001 88.6359 12.2555 91.6103 12.2555ZM105.699 9.75438V26.9809H108.924V18.6959C108.924 15.1005 111.21 12.6619 114.998 12.6619H116V9.59806H114.998C111.836 9.59806 109.863 10.8486 108.924 12.193V9.75438H105.699Z" fill="white"/>
</svg>
