<svg style="width: 100%; height: 100vh;" id="e1xxovtdfje91" xmlns="http://www.w3.org/2000/svg" xmlns:xlink="http://www.w3.org/1999/xlink" viewBox="0 0 566 421" shape-rendering="geometricPrecision" text-rendering="geometricPrecision"><style><![CDATA[#e1xxovtdfje92_to {animation: e1xxovtdfje92_to__to 3000ms linear infinite normal forwards}@keyframes e1xxovtdfje92_to__to { 0% {transform: translate(4.859234px,-80px)} 56.666667% {transform: translate(4.859234px,-80px);animation-timing-function: cubic-bezier(0.250000,0.100000,0.250000,1)} 66.666667% {transform: translate(4.859234px,-0.187000px)} 100% {transform: translate(4.859234px,-0.187000px)} }#e1xxovtdfje92 {animation: e1xxovtdfje92_c_o 3000ms linear infinite normal forwards}@keyframes e1xxovtdfje92_c_o { 0% {opacity: 0} 56.666667% {opacity: 0;animation-timing-function: cubic-bezier(0.250000,0.100000,0.250000,1)} 66.666667% {opacity: 1} 100% {opacity: 1} }#e1xxovtdfje93_to {animation: e1xxovtdfje93_to__to 3000ms linear infinite normal forwards}@keyframes e1xxovtdfje93_to__to { 0% {transform: translate(4px,80px)} 50% {transform: translate(4px,80px);animation-timing-function: cubic-bezier(0.250000,0.100000,0.250000,1)} 60% {transform: translate(4px,0px)} 100% {transform: translate(4px,0px)} }#e1xxovtdfje93 {animation: e1xxovtdfje93_c_o 3000ms linear infinite normal forwards}@keyframes e1xxovtdfje93_c_o { 0% {opacity: 0} 50% {opacity: 0;animation-timing-function: cubic-bezier(0.250000,0.100000,0.250000,1)} 60% {opacity: 1} 100% {opacity: 1} }#e1xxovtdfje94_to {animation: e1xxovtdfje94_to__to 3000ms linear infinite normal forwards}@keyframes e1xxovtdfje94_to__to { 0% {transform: translate(4px,80px)} 43.333333% {transform: translate(4px,80px);animation-timing-function: cubic-bezier(0.250000,0.100000,0.250000,1)} 53.333333% {transform: translate(4px,0px)} 100% {transform: translate(4px,0px)} }#e1xxovtdfje94 {animation: e1xxovtdfje94_c_o 3000ms linear infinite normal forwards}@keyframes e1xxovtdfje94_c_o { 0% {opacity: 0} 43.333333% {opacity: 0;animation-timing-function: cubic-bezier(0.250000,0.100000,0.250000,1)} 53.333333% {opacity: 1} 100% {opacity: 1} }#e1xxovtdfje95_to {animation: e1xxovtdfje95_to__to 3000ms linear infinite normal forwards}@keyframes e1xxovtdfje95_to__to { 0% {transform: translate(4px,80px)} 43.333333% {transform: translate(4px,80px);animation-timing-function: cubic-bezier(0.250000,0.100000,0.250000,1)} 53.333333% {transform: translate(4px,0px)} 100% {transform: translate(4px,0px)} }#e1xxovtdfje95 {animation: e1xxovtdfje95_c_o 3000ms linear infinite normal forwards}@keyframes e1xxovtdfje95_c_o { 0% {opacity: 0} 43.333333% {opacity: 0;animation-timing-function: cubic-bezier(0.250000,0.100000,0.250000,1)} 53.333333% {opacity: 1} 100% {opacity: 1} }#e1xxovtdfje96_to {animation: e1xxovtdfje96_to__to 3000ms linear infinite normal forwards}@keyframes e1xxovtdfje96_to__to { 0% {transform: translate(4px,80px)} 40% {transform: translate(4px,80px);animation-timing-function: cubic-bezier(0.250000,0.100000,0.250000,1)} 50% {transform: translate(4px,0px)} 100% {transform: translate(4px,0px)} }#e1xxovtdfje96 {animation: e1xxovtdfje96_c_o 3000ms linear infinite normal forwards}@keyframes e1xxovtdfje96_c_o { 0% {opacity: 0} 40% {opacity: 0;animation-timing-function: cubic-bezier(0.250000,0.100000,0.250000,1)} 50% {opacity: 1} 100% {opacity: 1} }#e1xxovtdfje97_to {animation: e1xxovtdfje97_to__to 3000ms linear infinite normal forwards}@keyframes e1xxovtdfje97_to__to { 0% {transform: translate(4px,80px)} 36.666667% {transform: translate(4px,80px);animation-timing-function: cubic-bezier(0.250000,0.100000,0.250000,1)} 46.666667% {transform: translate(4px,0px)} 100% {transform: translate(4px,0px)} }#e1xxovtdfje97 {animation: e1xxovtdfje97_c_o 3000ms linear infinite normal forwards}@keyframes e1xxovtdfje97_c_o { 0% {opacity: 0} 36.666667% {opacity: 0;animation-timing-function: cubic-bezier(0.250000,0.100000,0.250000,1)} 46.666667% {opacity: 1} 100% {opacity: 1} }#e1xxovtdfje98_to {animation: e1xxovtdfje98_to__to 3000ms linear infinite normal forwards}@keyframes e1xxovtdfje98_to__to { 0% {transform: translate(4px,80px)} 46.666667% {transform: translate(4px,80px);animation-timing-function: cubic-bezier(0.250000,0.100000,0.250000,1)} 56.666667% {transform: translate(4px,0px)} 100% {transform: translate(4px,0px)} }#e1xxovtdfje98 {animation: e1xxovtdfje98_c_o 3000ms linear infinite normal forwards}@keyframes e1xxovtdfje98_c_o { 0% {opacity: 0} 46.666667% {opacity: 0;animation-timing-function: cubic-bezier(0.250000,0.100000,0.250000,1)} 56.666667% {opacity: 1} 100% {opacity: 1} }#e1xxovtdfje99_to {animation: e1xxovtdfje99_to__to 3000ms linear infinite normal forwards}@keyframes e1xxovtdfje99_to__to { 0% {transform: translate(4px,80px)} 33.333333% {transform: translate(4px,80px);animation-timing-function: cubic-bezier(0.250000,0.100000,0.250000,1)} 43.333333% {transform: translate(4px,0px)} 100% {transform: translate(4px,0px)} }#e1xxovtdfje99 {animation: e1xxovtdfje99_c_o 3000ms linear infinite normal forwards}@keyframes e1xxovtdfje99_c_o { 0% {opacity: 0} 33.333333% {opacity: 0;animation-timing-function: cubic-bezier(0.250000,0.100000,0.250000,1)} 43.333333% {opacity: 1} 100% {opacity: 1} }]]></style><g id="e1xxovtdfje92_to" transform="translate(4.859234,-80)"><path id="e1xxovtdfje92" d="M210,146.458000L226.011000,125L243.526000,125L227.516000,146.458000L210,146.458000Z" transform="translate(0,0)" opacity="0" fill="rgb(255,255,255)" stroke="none" stroke-width="1"/></g><g id="e1xxovtdfje93_to" transform="translate(4,80)"><path id="e1xxovtdfje93" d="M490.979000,244.991000L490.979000,169.683000L505.074000,169.683000L505.074000,180.344000C509.179000,174.467000,517.800000,169,531.621000,169L536,169L536,182.394000L531.621000,182.394000C515.063000,182.394000,505.074000,193.055000,505.074000,208.772000L505.074000,244.991000L490.979000,244.991000Z" transform="translate(0,0)" opacity="0" fill="rgb(255,255,255)" stroke="none" stroke-width="1"/></g><g id="e1xxovtdfje94_to" transform="translate(4,80)"><path id="e1xxovtdfje94" d="M365.768000,244.950000L351.674000,244.950000L351.674000,169.642000L365.768000,169.642000L365.768000,244.950000Z" transform="translate(0,0)" opacity="0" fill="rgb(255,255,255)" stroke="none" stroke-width="1"/></g><g id="e1xxovtdfje95_to" transform="translate(4,80)"><path id="e1xxovtdfje95" d="M366.863000,144.084000L350.442000,144.084000L350.442000,127L366.863000,127L366.863000,144.084000Z" transform="translate(0,0)" opacity="0" fill="rgb(255,255,255)" stroke="none" stroke-width="1"/></g><g id="e1xxovtdfje96_to" transform="translate(4,80)"><path id="e1xxovtdfje96" d="M286.126000,169.638000L286.126000,149L300.221000,149L300.221000,169.638000L324.305000,169.638000L324.305000,182.075000L300.221000,182.075000L300.221000,219.114000C300.221000,228.134000,305.011000,232.508000,314.316000,232.508000L324.305000,232.508000L324.305000,244.945000L314.179000,244.945000C295.295000,244.945000,286.126000,236.335000,286.126000,221.711000L286.126000,182.075000L272.168000,182.075000L272.168000,169.638000L286.126000,169.638000Z" transform="translate(0,0)" opacity="0" fill="rgb(255,255,255)" stroke="none" stroke-width="1"/></g><g id="e1xxovtdfje97_to" transform="translate(4,80)"><path id="e1xxovtdfje97" d="M219.484000,231.560000C206.484000,231.560000,196.221000,222.403000,194.579000,210.102000L255.337000,210.102000C255.611000,207.916000,255.611000,205.729000,255.611000,203.815000C255.611000,182.221000,240.147000,165,218.526000,165C195.674000,165,179.800000,182.084000,179.800000,204.636000C179.800000,227.870000,196.495000,244.544000,219.347000,244.544000C235.905000,244.544000,249.316000,235.797000,254.653000,221.310000L239.463000,221.310000C235.632000,228.144000,228.379000,231.560000,219.484000,231.560000ZM218.663000,178C230.979000,178,239.190000,186.064000,240.969000,197.681000L194.716000,197.681000C196.358000,186.064000,205.800000,178,218.663000,178Z" transform="translate(0,0)" opacity="0" clip-rule="evenodd" fill="rgb(255,255,255)" fill-rule="evenodd" stroke="none" stroke-width="1"/></g><g id="e1xxovtdfje98_to" transform="translate(4,80)"><path id="e1xxovtdfje98" d="M430.684000,231.560000C417.684000,231.560000,407.421000,222.403000,405.779000,210.102000L466.537000,210.102000C466.811000,207.916000,466.811000,205.729000,466.811000,203.815000C466.811000,182.221000,451.347000,165,429.726000,165C406.874000,165,391,182.084000,391,204.636000C391,227.870000,407.695000,244.544000,430.547000,244.544000C447.105000,244.544000,460.516000,235.797000,465.853000,221.310000L450.663000,221.310000C446.832000,228.144000,439.579000,231.560000,430.684000,231.560000ZM429.863000,178C442.179000,178,450.390000,186.064000,452.168000,197.681000L405.916000,197.681000C407.558000,186.064000,417,178,429.863000,178Z" transform="translate(0,0)" opacity="0" clip-rule="evenodd" fill="rgb(255,255,255)" fill-rule="evenodd" stroke="none" stroke-width="1"/></g><g id="e1xxovtdfje99_to" transform="translate(4,80)"><path id="e1xxovtdfje99" d="M157.084000,244.949000L142.989000,244.949000L142.989000,201.077000C142.989000,188.913000,136.558000,180.576000,123.284000,180.576000C111.516000,180.576000,100.021000,189.596000,100.021000,205.451000L100.021000,245.086000L85.926300,245.086000L85.926300,201.214000C85.926300,189.050000,79.494700,180.713000,66.221100,180.713000C54.452600,180.713000,43.094700,189.596000,43.094700,205.041000L43.094700,244.949000L29,244.949000L29,169.642000L43.231600,169.642000L43.231600,177.842000C47.884200,172.239000,56.094700,167.592000,67.452600,167.592000C80.452600,167.592000,90.031600,173.195000,95.505300,181.669000C101.937000,173.469000,111.516000,167.592000,124.516000,167.592000C144.905000,167.592000,157.084000,181.123000,157.084000,200.120000L157.084000,244.949000Z" transform="translate(0,0)" opacity="0" fill="rgb(255,255,255)" stroke="none" stroke-width="1"/></g>
</svg>
